# File created by Blade
# Date/Time:  Fri Jan 16 17:18:57 2015
#---------------------------------------------------------
:version 1.10
:name HOM
:units
  mass 1.0
  length 1.000000
  angle deg
:documentation
     Acclaim Skeleton File
:root
   axis xyz
   order TX TY TZ RX RY RZ
   position 0.000000 0.000000 0.000000
   orientation 0 0 0
:bonedata
   begin
      id 1
      name Spine_dum
      direction 0.000000 1.000000 0.000000
      length 7.170412
      axis 0.0 0.0 0.0 xyz
   end
   begin
      id 2
      name LeftUpLeg_dum
      direction 1.000000 0.000000 0.000000
      length 4.318350
      axis 0.0 0.0 0.0 xyz
   end
   begin
      id 3
      name RightUpLeg_dum
      direction -1.000000 0.000000 0.000000
      length 4.318350
      axis 0.0 0.0 0.0 xyz
   end
   begin
      id 4
      name Spine
      direction 0.000000 1.000000 0.000000
      length 0.000000
      axis 0.0 0.0 0.0 xyz
      dof rx ry rz
   end
   begin
      id 5
      name Spine_dum1
      direction 0.000000 1.000000 0.000000
      length 14.276153
      axis 0.0 0.0 0.0 xyz
   end
   begin
      id 6
      name Spine_dum2
      direction 0.000000 1.000000 0.000000
      length 10.718243
      axis 0.0 0.0 0.0 xyz
   end
   begin
      id 7
      name Spine_dum3
      direction 0.000000 1.000000 0.000000
      length 10.718243
      axis 0.0 0.0 0.0 xyz
   end
   begin
      id 8
      name Head
      direction 0.000000 1.000000 0.000000
      length 4.527550
      axis 0.0 0.0 0.0 xyz
      dof rx ry rz
   end
   begin
      id 9
      name LeftShoulder
      direction 1.000000 0.000000 0.000000
      length 7.058872
      axis 0.0 0.0 -90.0 xyz
      dof rx ry rz
   end
   begin
      id 10
      name LeftArm
      direction 1.000000 0.000000 0.000000
      length 10.955525
      axis 0.0 0.0 -90.0 xyz
      dof rx ry rz
   end
   begin
      id 11
      name LeftForeArm
      direction 1.000000 0.000000 0.000000
      length 8.193716
      axis 0.0 0.0 -90.0 xyz
      dof ry rz rx
   end
   begin
      id 12
      name LeftHand
      direction 0.000000 0.000000 0.000000
      length 0.000000
      axis 0.0 0.0 -90.0 xyz
      dof rx ry rz
   end
   begin
      id 13
      name LeftHand_dum1
      direction 0.000000 0.000000 0.000000
      length 0.000000
      axis 0.0 0.0 -90.0 xyz
   end
   begin
      id 14
      name LeftHand_dum2
      direction 1.000000 0.000000 0.000000
      length 3.937000
      axis 0.0 0.0 -90.0 xyz
   end
   begin
      id 15
      name LeftHandThumb1
      direction 0.000000 0.000000 1.000000
      length 3.937000
      axis 0.0 0.0 -90.0 xyz
      dof rx rz ry
   end
   begin
      id 16
      name RightShoulder
      direction -1.000000 0.000000 0.000000
      length 7.058872
      axis 0.0 0.0 90.0 xyz
      dof rx ry rz
   end
   begin
      id 17
      name RightArm
      direction -1.000000 0.000000 0.000000
      length 10.955525
      axis 0.0 0.0 90.0 xyz
      dof rx ry rz
   end
   begin
      id 18
      name RightForeArm
      direction -1.000000 0.000000 0.000000
      length 8.193716
      axis 0.0 0.0 90.0 xyz
      dof ry rz rx
   end
   begin
      id 19
      name RightHand
      direction 0.000000 0.000000 0.000000
      length 0.000000
      axis 0.0 0.0 90.0 xyz
      dof rx ry rz
   end
   begin
      id 20
      name RightHand_dum1
      direction 0.000000 0.000000 0.000000
      length 0.000000
      axis 0.0 0.0 90.0 xyz
   end
   begin
      id 21
      name RightHand_dum2
      direction -1.000000 0.000000 0.000000
      length 3.937000
      axis 0.0 0.0 90.0 xyz
   end
   begin
      id 22
      name RightHandThumb1
      direction 0.000000 0.000000 1.000000
      length 3.937000
      axis 0.0 0.0 90.0 xyz
      dof rx rz ry
   end
   begin
      id 23
      name LeftUpLeg
      direction 0.000000 -1.000000 0.000000
      length 17.323638
      axis 0.0 0.0 0.0 xyz
      dof rx ry rz
   end
   begin
      id 24
      name LeftLeg
      direction 0.000000 -1.000000 0.000000
      length 16.270368
      axis 0.0 0.0 0.0 xyz
      dof rx ry rz
   end
   begin
      id 25
      name LeftFoot
      direction 0.000000 -0.258819 0.965926
      length 4.922846
      axis 15.0 0.0 0.0 xyz
      dof rx ry rz
   end
   begin
      id 26
      name LeftToeBase
      direction 0.000000 0.000000 1.000000
      length 2.952750
      axis 0.0 0.0 0.0 xyz
      dof rx ry rz
   end
   begin
      id 27
      name RightUpLeg
      direction 0.000000 -1.000000 0.000000
      length 17.323638
      axis 0.0 0.0 0.0 xyz
      dof rx ry rz
   end
   begin
      id 28
      name RightLeg
      direction 0.000000 -1.000000 0.000000
      length 16.270368
      axis 0.0 0.0 0.0 xyz
      dof rx ry rz
   end
   begin
      id 29
      name RightFoot
      direction 0.000000 -0.258819 0.965926
      length 4.922846
      axis 15.0 0.0 0.0 xyz
      dof rx ry rz
   end
   begin
      id 30
      name RightToeBase
      direction 0.000000 0.000000 1.000000
      length 2.952750
      axis 0.0 0.0 0.0 xyz
      dof rx ry rz
   end
:hierarchy
   begin
      root Spine_dum LeftUpLeg_dum RightUpLeg_dum
      Spine_dum Spine
      LeftUpLeg_dum LeftUpLeg
      RightUpLeg_dum RightUpLeg
      Spine Spine_dum1 Spine_dum2 Spine_dum3
      Spine_dum1 Head
      Spine_dum2 LeftShoulder
      Spine_dum3 RightShoulder
      LeftShoulder LeftArm
      LeftArm LeftForeArm
      LeftForeArm LeftHand
      LeftHand LeftHand_dum1 LeftHand_dum2
      LeftHand_dum1 LeftHandThumb1
      RightShoulder RightArm
      RightArm RightForeArm
      RightForeArm RightHand
      RightHand RightHand_dum1 RightHand_dum2
      RightHand_dum1 RightHandThumb1
      LeftUpLeg LeftLeg
      LeftLeg LeftFoot
      LeftFoot LeftToeBase
      RightUpLeg RightLeg
      RightLeg RightFoot
      RightFoot RightToeBase
   end

# File created by Blade
# Date/Time:  Fri Jan 16 17:19:08 2015
# Frame Rate: 120.000 fps
#------------------------------------------------------
:FULLY-SPECIFIED
:DEGREES
953
root -5.538667 35.215358 -9.676452 -1.750937 -5.187775 -5.946772
Spine -1.372102 2.370590 10.423454
Head 4.380910 2.264012 -9.845490
LeftShoulder -20.601768 13.675010 -16.400083
LeftArm 20.832989 -7.225364 -74.398340
LeftForeArm 14.683288 -0.000000 9.903175
LeftHand 0.451457 -0.000000 -6.064176
LeftHandThumb1 -26.253704 0.000000 33.147579
RightShoulder -1.121323 11.836708 -4.872640
RightArm -19.017313 59.226351 28.489334
RightForeArm 50.304789 -0.000000 75.986872
RightHand 20.987868 -0.000000 5.994051
RightHandThumb1 -24.326973 -0.000000 -32.862282
LeftUpLeg 12.160573 14.341916 7.588862
LeftLeg -8.863244 -0.000000 0.000000
LeftFoot -16.024413 27.275362 -8.729508
LeftToeBase 22.695736 -0.000000 -0.000000
RightUpLeg 9.120497 -3.978374 4.468373
RightLeg -5.177371 -0.000000 0.000000
RightFoot -4.348050 -28.708594 3.386961
RightToeBase 13.726711 -0.000000 -0.000000
954
root -5.541980 35.214706 -9.677306 -1.766960 -5.221208 -5.959125
Spine -1.328093 2.392677 10.431089
Head 4.359802 2.192678 -9.824045
LeftShoulder -20.591393 13.666043 -16.399581
LeftArm 20.839203 -7.260825 -74.405142
LeftForeArm 14.703879 -0.000000 9.958683
LeftHand 0.481152 0.000000 -6.013438
LeftHandThumb1 -26.253704 0.000000 33.147579
RightShoulder -1.102645 11.705828 -4.870362
RightArm -18.500405 58.521604 28.957925
RightForeArm 49.595413 -0.000000 76.714098
RightHand 20.771715 -0.000000 6.123513
RightHandThumb1 -24.326973 -0.000000 -32.862282
LeftUpLeg 12.192056 14.358942 7.608600
LeftLeg -8.875384 -0.000000 0.000000
LeftFoot -16.013754 27.300477 -8.743150
LeftToeBase 22.611951 -0.000000 -0.000000
RightUpLeg 9.137802 -3.940287 4.486341
RightLeg -5.182067 -0.000000 0.000000
RightFoot -4.344333 -28.702876 3.388320
RightToeBase 13.728902 -0.000000 -0.000000
955
root -5.545636 35.214414 -9.680852 -1.771563 -5.247693 -5.963376
Spine -1.299162 2.400624 10.416719
Head 4.354044 2.136209 -9.777603
LeftShoulder -20.595401 13.684364 -16.399617
LeftArm 20.885661 -7.262066 -74.403859
LeftForeArm 14.713390 -0.000000 10.005080
LeftHand 0.475020 0.000000 -5.978230
LeftHandThumb1 -26.253704 0.000000 33.147579
RightShoulder -1.101957 11.624929 -4.853451
RightArm -17.920689 57.767102 29.515955
RightForeArm 48.455958 -0.000000 77.521200
RightHand 20.651685 -0.000000 5.911992
RightHandThumb1 -24.326973 -0.000000 -32.862282
LeftUpLeg 12.197237 14.375533 7.620516
LeftLeg -8.877150 -0.000000 0.000000
LeftFoot -16.006128 27.324557 -8.694078
LeftToeBase 22.670552 -0.000000 -0.000000
RightUpLeg 9.131395 -3.913554 4.495903
RightLeg -5.170557 -0.000000 0.000000
RightFoot -4.345385 -28.691784 3.379226
RightToeBase 13.731047 -0.000000 -0.000000
956
root -5.548221 35.214563 -9.680964 -1.799276 -5.268894 -5.957848
Spine -1.237341 2.396101 10.396724
Head 4.311833 2.078855 -9.745567
LeftShoulder -20.584002 13.682234 -16.400345
LeftArm 20.896960 -7.242054 -74.384222
LeftForeArm 14.679716 0.000000 10.067474
LeftHand 0.518881 -0.000000 -5.872402
LeftHandThumb1 -26.253704 0.000000 33.147579
RightShoulder -1.065949 11.508099 -4.844860
RightArm -17.458359 57.088261 29.962851
RightForeArm 47.255367 -0.000000 78.368060
RightHand 20.278548 -0.000000 5.596452
RightHandThumb1 -24.326973 -0.000000 -32.862282
LeftUpLeg 12.231158 14.389189 7.633492
LeftLeg -8.868794 -0.000000 0.000000
LeftFoot -15.974243 27.301636 -8.617792
LeftToeBase 22.658973 -0.000000 -0.000000
RightUpLeg 9.153197 -3.914794 4.491895
RightLeg -5.162347 -0.000000 0.000000
RightFoot -4.339441 -28.687242 3.332095
RightToeBase 13.747626 -0.000000 -0.000000
957
root -5.550875 35.214822 -9.680942 -1.817582 -5.292323 -5.954335
Spine -1.192533 2.391874 10.385680
Head 4.276533 2.017774 -9.745138
LeftShoulder -20.572999 13.675828 -16.404907
LeftArm 20.896088 -7.226490 -74.363314
LeftForeArm 14.706598 -0.000000 10.129087
LeftHand 0.423396 -0.000000 -6.017085
LeftHandThumb1 -26.253704 0.000000 33.147579
RightShoulder -1.056898 11.358750 -4.858231
RightArm -16.939482 56.324118 30.483606
RightForeArm 46.055336 -0.000000 79.203242
RightHand 20.197065 -0.000000 5.637053
RightHandThumb1 -24.326973 -0.000000 -32.862282
LeftUpLeg 12.258629 14.402000 7.638959
LeftLeg -8.874091 -0.000000 0.000000
LeftFoot -15.977691 27.302281 -8.638373
LeftToeBase 22.679130 -0.000000 -0.000000
RightUpLeg 9.157447 -3.972030 4.488000
RightLeg -5.141750 -0.000000 0.000000
RightFoot -4.335056 -28.639337 3.287686
RightToeBase 13.765570 -0.000000 -0.000000
958
root -5.556027 35.214777 -9.681776 -1.853652 -5.310520 -5.958523
Spine -1.118879 2.375164 10.367550
Head 4.235730 1.942430 -9.711584
LeftShoulder -20.563123 13.682631 -16.402237
LeftArm 20.928428 -7.216638 -74.353962
LeftForeArm 14.693414 -0.000000 10.186070
LeftHand 0.418405 0.000000 -5.927651
LeftHandThumb1 -26.253704 0.000000 33.147579
RightShoulder -0.973447 11.254178 -4.842345
RightArm -16.619640 55.603328 30.807542
RightForeArm 44.988979 -0.000000 80.039880
RightHand 19.991382 -0.000000 5.753554
RightHandThumb1 -24.326973 -0.000000 -32.862282
LeftUpLeg 12.299221 14.433807 7.664410
LeftLeg -8.872550 -0.000000 0.000000
LeftFoot -15.964454 27.290691 -8.632167
LeftToeBase 22.664010 -0.000000 -0.000000
RightUpLeg 9.191473 -3.958814 4.500041
RightLeg -5.139590 -0.000000 0.000000
RightFoot -4.328361 -28.646908 3.269412
RightToeBase 13.725571 -0.000000 -0.000000
959
root -5.559827 35.214693 -9.683742 -1.872621 -5.321313 -5.959157
Spine -1.073689 2.331421 10.345578
Head 4.208197 1.909422 -9.679711
LeftShoulder -20.568360 13.686836 -16.396725
LeftArm 20.961332 -7.167668 -74.331241
LeftForeArm 14.655992 0.000000 10.211601
LeftHand 0.501795 -0.000000 -5.767277
LeftHandThumb1 -26.253704 0.000000 33.147579
RightShoulder -0.889849 11.126076 -4.836879
RightArm -16.241551 54.807412 31.198565
RightForeArm 43.961109 -0.000000 80.914370
RightHand 19.818918 -0.000000 5.690047
RightHandThumb1 -24.326973 -0.000000 -32.862282
LeftUpLeg 12.317957 14.456912 7.676449
LeftLeg -8.872100 -0.000000 0.000000
LeftFoot -15.959558 27.301806 -8.612804
LeftToeBase 22.666773 -0.000000 -0.000000
RightUpLeg 9.206605 -3.918309 4.509449
RightLeg -5.137868 -0.000000 0.000000
RightFoot -4.339318 -28.678217 3.281506
RightToeBase 13.752008 -0.000000 -0.000000
960
root -5.564390 35.214934 -9.684853 -1.901850 -5.335149 -5.958712
Spine -1.013794 2.296720 10.316861
Head 4.177032 1.842493 -9.656943
LeftShoulder -20.562838 13.692372 -16.384376
LeftArm 20.989571 -7.121443 -74.314392
LeftForeArm 14.624991 -0.000000 10.247642
LeftHand 0.471894 -0.000000 -5.744284
LeftHandThumb1 -26.253704 0.000000 33.147579
RightShoulder -0.817382 11.025140 -4.824952
RightArm -15.886488 53.953652 31.559449
RightForeArm 42.780633 0.000000 81.730404
RightHand 19.683112 -0.000000 5.764917
RightHandThumb1 -24.326973 -0.000000 -32.862282
LeftUpLeg 12.356792 14.478539 7.693127
LeftLeg -8.885035 -0.000000 0.000000
LeftFoot -15.946667 27.289439 -8.615908
LeftToeBase 22.667621 -0.000000 -0.000000
RightUpLeg 9.236909 -3.854057 4.520761
RightLeg -5.143469 -0.000000 0.000000
RightFoot -4.335551 -28.717430 3.286292
RightToeBase 13.751649 -0.000000 -0.000000
961
root -5.568791 35.215232 -9.687831 -1.926557 -5.334331 -5.959885
Spine -0.955875 2.238749 10.291946
Head 4.136423 1.803524 -9.631750
LeftShoulder -20.554736 13.680958 -16.375829
LeftArm 21.002192 -7.091502 -74.298937
LeftForeArm 14.642290 -0.000000 10.281900
LeftHand 0.448622 -0.000000 -5.772724
LeftHandThumb1 -26.253704 0.000000 33.147579
RightShoulder -0.763566 10.881198 -4.839290
RightArm -15.440650 53.087992 32.014278
RightForeArm 41.784506 -0.000000 82.525489
RightHand 19.482579 -0.000000 5.944980
RightHandThumb1 -24.326973 -0.000000 -32.862282
LeftUpLeg 12.369545 14.475097 7.704975
LeftLeg -8.869449 -0.000000 0.000000
LeftFoot -15.940546 27.293683 -8.621094
LeftToeBase 22.611546 -0.000000 -0.000000
RightUpLeg 9.253223 -3.841135 4.528204
RightLeg -5.133718 -0.000000 0.000000
RightFoot -4.338863 -28.728204 3.289430
RightToeBase 13.727371 -0.000000 -0.000000
962
root -5.573779 35.215488 -9.689191 -1.951051 -5.329886 -5.963791
Spine -0.903562 2.192701 10.258097
Head 4.101124 1.761391 -9.583590
LeftShoulder -20.549601 13.673635 -16.358343
LeftArm 21.027708 -7.036022 -74.280113
LeftForeArm 14.633511 -0.000000 10.304413
LeftHand 0.439383 -0.000000 -5.785310
LeftHandThumb1 -26.253704 0.000000 33.147579
RightShoulder -0.675653 10.770776 -4.817598
RightArm -15.184423 52.066487 32.233287
RightForeArm 41.062852 -0.000000 83.275305
RightHand 19.452180 -0.000000 6.190800
RightHandThumb1 -24.326973 -0.000000 -32.862282
LeftUpLeg 12.393997 14.491265 7.726334
LeftLeg -8.875874 -0.000000 0.000000
LeftFoot -15.970148 27.264981 -8.659865
LeftToeBase 22.734965 -0.000000 -0.000000
RightUpLeg 9.272401 -3.831895 4.540322
RightLeg -5.124789 -0.000000 0.000000
RightFoot -4.333310 -28.733263 3.267007
RightToeBase 13.717971 -0.000000 -0.000000
